<svg width="16" height="16" fill="none" xmlns="http://www.w3.org/2000/svg"><path d="M15.91 4.324a.504.504 0 00-.409-.218H4.836L4.03 1.247C3.712.122 2.96 0 2.652 0H.499A.506.506 0 000 .512c0 .283.223.513.499.513h2.152c.068 0 .276 0 .418.503l2.777 10.48a.5.5 0 00.48.374h6.784a.5.5 0 00.47-.34l2.39-7.25a.524.524 0 00-.06-.468zm-3.151 7.033H6.705L5.117 5.131h9.675l-2.033 6.226zm-.99 2.063c-.694 0-1.256.577-1.256 1.29 0 .713.562 1.29 1.256 1.29s1.256-.577 1.256-1.29c0-.713-.562-1.29-1.256-1.29zm-4.523 0c-.694 0-1.256.577-1.256 1.29 0 .713.562 1.29 1.256 1.29s1.257-.577 1.257-1.29c0-.713-.563-1.29-1.257-1.29z" fill="#fff"/></svg>